<?xml version="1.0" standalone="no"?>
<!DOCTYPE svg PUBLIC "-//W3C//DTD SVG 20010904//EN"
 "http://www.w3.org/TR/2001/REC-SVG-20010904/DTD/svg10.dtd">
<svg version="1.0" xmlns="http://www.w3.org/2000/svg"
 width="200.000000pt" height="200.000000pt" viewBox="0 0 200.000000 200.000000"
 preserveAspectRatio="xMidYMid meet">
<metadata>
Created by potrace 1.11, written by Peter Selinger 2001-2013
</metadata>
<g transform="translate(0.000000,200.000000) scale(0.100000,-0.100000)"
fill="#000000" stroke="none">
<path d="M596 1610 c-208 -93 -383 -173 -389 -179 -17 -17 -16 -59 3 -78 20
-22 761 -353 790 -353 11 0 49 14 85 30 36 17 67 30 69 30 2 0 37 15 78 34 40
19 123 55 183 81 61 26 142 62 180 80 39 17 98 44 132 60 46 20 64 34 71 54
19 55 5 64 -329 212 -173 77 -327 146 -344 153 -67 31 -109 46 -129 46 -11 -1
-191 -77 -400 -170z m530 -13 c65 -30 194 -87 286 -128 93 -41 168 -76 168
-79 0 -3 -131 -63 -291 -134 -249 -111 -293 -127 -312 -118 -12 6 -62 29 -112
51 -49 21 -119 52 -155 68 -36 16 -116 51 -177 79 -62 27 -113 51 -113 54 0 6
560 257 576 259 6 1 65 -23 130 -52z"/>
<path d="M216 1038 c-21 -29 -20 -61 2 -80 9 -8 181 -89 382 -178 253 -113
376 -163 400 -163 23 1 154 54 375 152 415 184 408 181 419 213 13 36 -14 78
-50 78 -14 0 -188 -72 -385 -160 l-360 -160 -42 20 c-23 10 -130 58 -237 105
-107 47 -215 96 -240 107 -211 96 -238 103 -264 66z"/>
<path d="M222 654 c-27 -19 -29 -64 -4 -86 15 -14 146 -74 617 -284 106 -47
149 -61 175 -58 29 3 573 239 730 317 55 27 72 63 46 101 -11 17 -26 26 -43
26 -14 0 -187 -73 -385 -161 l-358 -162 -163 73 c-89 40 -191 86 -227 103 -36
16 -110 49 -165 74 -55 24 -113 51 -129 59 -38 18 -66 18 -94 -2z"/>
</g>
</svg>
